<svg xmlns="http://www.w3.org/2000/svg" viewBox="0 0 512 511.99"><defs><style>.cls-1{fill:#17a2b8;}</style></defs><title>ai_pic</title><g id="Layer_2" data-name="Layer 2"><g id="Capa_1" data-name="Capa 1"><path class="cls-1" d="M137.14,237.71a9.15,9.15,0,1,0,9.15-9.15A9.15,9.15,0,0,0,137.14,237.71Z"/><path class="cls-1" d="M246.86,356.56H172.07l-5.93,29.61a27.24,27.24,0,1,1-18.46-.93L154.14,353a18.34,18.34,0,0,1,17.93-14.69h74.79V301.71h-20a27.43,27.43,0,1,1,0-18.29h20V246.85H172a27.43,27.43,0,1,1,0-18.28h74.83v-72l-24.81,34.75a18.36,18.36,0,0,1-15,7.64,18,18,0,0,1-7.27-1.53l-33.21-14.57a27.72,27.72,0,1,1,7.09-18.24c0,.45-.11.88-.13,1.33l33.58,14.74,39.7-55.58V68.56a68.53,68.53,0,0,0-137-4,82.63,82.63,0,0,1,61.94,40.52A9.15,9.15,0,0,1,156,114.29a64,64,0,0,0-119.44,32,62.76,62.76,0,0,0,4.72,24.12,90.71,90.71,0,0,1,31.85-5.83,9.14,9.14,0,0,1,0,18.28,72.52,72.52,0,0,0-33.5,8.2,74,74,0,0,0-6.57,3.83c-1.15.76-2.24,1.59-3.35,2.4-1.39,1-2.75,2.08-4.06,3.2s-2.35,2.06-3.46,3.14c-.85.83-1.65,1.69-2.46,2.56a74.42,74.42,0,0,0-5.78,7c-.57.79-1.17,1.55-1.71,2.36-.93,1.4-1.79,2.87-2.63,4.34C9,221,8.4,222.11,7.83,223.24c-.67,1.36-1.38,2.7-2,4.1a72.94,72.94,0,0,0-2.68,7.38c-.31,1-.53,2.05-.79,3.07-.52,2-1,4.07-1.31,6.14-.16,1-.32,1.92-.44,2.89A76.09,76.09,0,0,0,0,256a73.37,73.37,0,0,0,24.07,54.18A87,87,0,0,1,61.3,287.24a9.15,9.15,0,0,1,5.38,17.49,68.24,68.24,0,0,0-34,23.53c-.06.08-.07.18-.13.26a67.26,67.26,0,0,0-13.07,29.36c-.07.4-.21.76-.28,1.15a69.59,69.59,0,0,0-.91,11.25,68.22,68.22,0,0,0,46,64.79c-.11-1.79-.28-3.55-.28-5.36a99.87,99.87,0,0,1,20.11-60.38,9.14,9.14,0,0,1,14.62,11A82.22,82.22,0,0,0,83.9,445.92c.12.64.3,1.25.44,1.88.44,1.93.92,3.85,1.49,5.73.21.71.46,1.39.69,2.07.6,1.8,1.23,3.58,2,5.33.26.64.55,1.27.83,1.9q1.17,2.66,2.5,5.2c.3.56.6,1.12.91,1.67q1.47,2.61,3.12,5.12c.3.46.59.92.9,1.37,1.2,1.75,2.48,3.45,3.81,5.09.26.33.51.67.78,1,1.53,1.83,3.12,3.58,4.79,5.27.12.12.22.25.34.37a83.05,83.05,0,0,0,11.81,9.77c.61.41,1.25.77,1.86,1.17,1.46.94,2.93,1.85,4.45,2.7.9.5,1.82.95,2.74,1.42,1.3.66,2.61,1.31,4,1.9,1,.46,2.07.89,3.12,1.3,1.29.51,2.6,1,3.93,1.43,1.09.38,2.19.73,3.31,1.05,1.37.41,2.77.75,4.17,1.08,1.08.26,2.16.52,3.26.73,1.6.31,3.23.53,4.86.75.94.12,1.85.28,2.78.37,2.6.25,5.21.4,7.87.4a82.37,82.37,0,0,0,82.29-82.28V356.56Z"/><path class="cls-1" d="M192,292.56a9.15,9.15,0,1,0,9.14-9.14A9.15,9.15,0,0,0,192,292.56Z"/><path class="cls-1" d="M137.14,164.56a9.15,9.15,0,1,0,9.15-9.14A9.15,9.15,0,0,0,137.14,164.56Z"/><path class="cls-1" d="M265.14,211.2v89.58a45.71,45.71,0,0,0,0-89.58Z"/><path class="cls-1" d="M265.14,365.24a109.62,109.62,0,0,0,0-218.5v46a63.91,63.91,0,0,1,0,126.54Z"/><path class="cls-1" d="M146.29,411.42a9.14,9.14,0,1,0,9.14-9.14A9.14,9.14,0,0,0,146.29,411.42Z"/><path class="cls-1" d="M509.35,219.42H461.17a9.14,9.14,0,0,1-8.93-7.17,195.72,195.72,0,0,0-26.56-64,9.14,9.14,0,0,1,1.23-11.41L461,102.71A251.19,251.19,0,0,0,409.29,51L375.2,85.09a9.13,9.13,0,0,1-11.41,1.23,195.77,195.77,0,0,0-64-26.56,9.15,9.15,0,0,1-7.18-8.93V2.64A254.68,254.68,0,0,0,233,1.15a86.72,86.72,0,0,1,32.19,67.41v59.89a127.86,127.86,0,0,1,0,255.08v46.18A100.37,100.37,0,0,1,225,510a255.16,255.16,0,0,0,67.62-.61V461.16a9.12,9.12,0,0,1,7.17-8.92,196,196,0,0,0,64-26.56,9.15,9.15,0,0,1,11.41,1.22L409.28,461A250.5,250.5,0,0,0,461,409.28L426.9,375.19a9.15,9.15,0,0,1-1.22-11.41,195.9,195.9,0,0,0,26.56-64,9.14,9.14,0,0,1,8.93-7.17h48.18A253.25,253.25,0,0,0,509.35,219.42Z"/></g></g></svg>