<svg xmlns="http://www.w3.org/2000/svg" viewBox="0 0 640.58 595.67"><defs><style>.cls-1{opacity:0.8;}.cls-2{opacity:0.2;}</style></defs><title>Asset 1</title><g id="Layer_2" data-name="Layer 2"><g id="Layer_1-2" data-name="Layer 1"><polygon class="cls-1" points="353.48 0 218.47 0 0 595.67 153.42 595.67 187.78 484.39 222.15 373.52 285.97 166.92 350.2 373.52 384.57 484.39 419.34 595.67 573.58 595.67 353.48 0"/><path d="M190.91,483.89h-3.13"/><path d="M378.93,483.89l0,0,5.61,0Z"/><path d="M346.36,373l3.84,0h-3.85Z"/><path d="M222.15,373h10"/><polygon class="cls-2" points="420.48 0 285.47 0 67 595.67 220.42 595.67 254.78 484.39 289.15 373.52 352.97 166.92 417.2 373.52 451.57 484.39 486.34 595.67 640.58 595.67 420.48 0"/></g></g></svg>